<svg width="36" height="36" viewBox="0 0 36 36" fill="none" xmlns="http://www.w3.org/2000/svg">
<circle cx="18" cy="18" r="18" fill="#B3C4B2"/>
<path d="M26.8878 14.2315L15.3878 25.7315C15.2876 25.832 15.1686 25.9118 15.0376 25.9662C14.9065 26.0206 14.766 26.0486 14.6241 26.0486C14.4822 26.0486 14.3417 26.0206 14.2107 25.9662C14.0796 25.9118 13.9606 25.832 13.8605 25.7315L8.8292 20.7003C8.72891 20.6 8.64936 20.4809 8.59509 20.3499C8.54081 20.2189 8.51288 20.0784 8.51288 19.9366C8.51288 19.7948 8.54081 19.6543 8.59509 19.5233C8.64936 19.3923 8.72891 19.2732 8.8292 19.1729C8.92949 19.0726 9.04855 18.9931 9.17958 18.9388C9.31061 18.8845 9.45105 18.8566 9.59287 18.8566C9.7347 18.8566 9.87514 18.8845 10.0062 18.9388C10.1372 18.9931 10.2563 19.0726 10.3565 19.1729L14.625 23.4414L25.3622 12.706C25.5648 12.5034 25.8395 12.3896 26.1259 12.3896C26.4124 12.3896 26.6871 12.5034 26.8896 12.706C27.0921 12.9085 27.2059 13.1832 27.2059 13.4696C27.2059 13.7561 27.0921 14.0308 26.8896 14.2333L26.8878 14.2315Z" fill="white"/>
</svg>
